<svg preserveAspectRatio="none" width="100%" height="100%" overflow="visible" style="display: block;" viewBox="0 0 17 17" fill="none" xmlns="http://www.w3.org/2000/svg">
<g id="Group 1285">
<g id="Vector">
<path d="M4.11129 15.1898C4.49123 15.4396 4.89372 15.6578 5.31505 15.8409C6.22862 14.3042 9.29538 11.7964 14.2538 14.0582C14.8778 13.4124 15.3941 12.6618 15.7736 11.8354C15.8831 11.5972 15.9812 11.3526 16.0672 11.1024C9.9121 9.58594 5.13783 12.9099 3.52008 14.7614C3.71028 14.9129 3.90754 15.0559 4.11129 15.1898Z" fill="#2A313A"/>
<path d="M1.22635 11.8354C1.60593 12.6618 2.1222 13.4124 2.7462 14.0582C3.52551 11.9485 7.36627 7.94096 16.4949 8.78916C16.4983 8.69319 16.5 8.5968 16.5 8.5C16.5 6.92866 16.047 5.46314 15.2644 4.22691C11.0631 2.78755 4.63758 3.41299 1.95 3.90562C1.76243 4.17254 1.59075 4.45145 1.43636 4.74096C4.56199 4.60174 10.8197 4.67671 10.8454 6.09036C10.8775 7.85743 1.9527 7.97406 1.22635 11.8354Z" fill="#2A313A"/>
<path d="M12.2618 1.43781C11.1404 0.839283 9.85984 0.5 8.5 0.5C6.45805 0.5 4.59478 1.26503 3.18117 2.5241C4.99695 2.02208 9.69518 1.34535 13.9618 2.6546C13.4528 2.17879 12.8816 1.76869 12.2618 1.43781Z" fill="#2A313A"/>
<path d="M13.9618 2.6546C13.4528 2.17879 12.8816 1.76869 12.2618 1.43781C11.1404 0.839283 9.85984 0.5 8.5 0.5C6.45805 0.5 4.59478 1.26503 3.18117 2.5241C3.07922 2.6149 2.97961 2.70827 2.88244 2.80412C2.5398 3.14208 2.2275 3.51074 1.95 3.90562C1.76243 4.17254 1.59075 4.45145 1.43636 4.74096C0.838734 5.86163 0.5 7.14126 0.5 8.5C0.5 9.69044 0.760014 10.8201 1.22635 11.8354M5.31505 15.8409C4.89372 15.6578 4.49123 15.4396 4.11129 15.1898C3.90754 15.0559 3.71028 14.9129 3.52008 14.7614C3.24701 14.5439 2.98849 14.309 2.7462 14.0582C2.1222 13.4124 1.60593 12.6618 1.22635 11.8354M1.22635 11.8354C1.9527 7.97406 10.8775 7.85743 10.8454 6.09036C10.8197 4.67671 4.56199 4.60174 1.43636 4.74096M16.0672 11.1024C15.9812 11.3526 15.8831 11.5972 15.7736 11.8354C15.3941 12.6618 14.8778 13.4124 14.2538 14.0582C13.5281 14.8093 12.6566 15.4187 11.685 15.8409C10.709 16.2649 9.63195 16.5 8.5 16.5C7.36805 16.5 6.29101 16.2649 5.31505 15.8409M5.31505 15.8409C6.22862 14.3042 9.29538 11.7964 14.2538 14.0582M3.52008 14.7614C5.13783 12.9099 9.9121 9.58594 16.0672 11.1024M16.0672 11.1024C16.3179 10.3732 16.4662 9.59642 16.4949 8.78916M2.7462 14.0582C3.52551 11.9485 7.36627 7.94096 16.4949 8.78916M16.4949 8.78916C16.4983 8.69319 16.5 8.5968 16.5 8.5C16.5 6.92866 16.047 5.46314 15.2644 4.22691M3.18117 2.5241C4.99695 2.02208 9.69518 1.34535 13.9618 2.6546M13.9618 2.6546C14.23 2.90524 14.4808 3.17412 14.7125 3.45925C14.911 3.70361 15.0954 3.95991 15.2644 4.22691M1.95 3.90562C4.63758 3.41299 11.0631 2.78755 15.2644 4.22691" stroke="var(--stroke-0, #F7F8F9)" stroke-linejoin="round"/>
</g>
<g id="Vector_2">
<path d="M8.5 16.5C9.63195 16.5 10.709 16.2649 11.685 15.8409C12.6566 15.4187 13.5281 14.8093 14.2538 14.0582C9.29538 11.7964 6.22863 14.3042 5.31505 15.8409C6.29101 16.2649 7.36805 16.5 8.5 16.5Z" fill="#2A313A"/>
<path d="M3.52008 14.7614C5.13783 12.9099 9.9121 9.58594 16.0672 11.1024C16.3179 10.3732 16.4662 9.59642 16.4949 8.78916C7.36627 7.94096 3.52551 11.9485 2.7462 14.0582C2.98849 14.309 3.24701 14.5439 3.52008 14.7614Z" fill="#2A313A"/>
<path d="M0.5 8.5C0.5 9.69043 0.760014 10.8201 1.22635 11.8354C1.9527 7.97406 10.8775 7.85743 10.8454 6.09036C10.8197 4.67671 4.56199 4.60174 1.43636 4.74096C0.838734 5.86163 0.5 7.14126 0.5 8.5Z" fill="#2A313A"/>
<path d="M3.18117 2.5241C3.07922 2.6149 2.97961 2.70827 2.88245 2.80411C2.5398 3.14208 2.2275 3.51073 1.95 3.90562C4.63758 3.41298 11.0631 2.78755 15.2644 4.22691C15.0954 3.95991 14.911 3.70361 14.7125 3.45925C14.4808 3.17412 14.23 2.90524 13.9618 2.6546C9.69518 1.34535 4.99695 2.02208 3.18117 2.5241Z" fill="#2A313A"/>
<path d="M8.5 16.5C9.63195 16.5 10.709 16.2649 11.685 15.8409C12.6566 15.4187 13.5281 14.8093 14.2538 14.0582C9.29538 11.7964 6.22863 14.3042 5.31505 15.8409C6.29101 16.2649 7.36805 16.5 8.5 16.5Z" stroke="var(--stroke-0, #F7F8F9)" stroke-linejoin="round"/>
<path d="M3.52008 14.7614C5.13783 12.9099 9.9121 9.58594 16.0672 11.1024C16.3179 10.3732 16.4662 9.59642 16.4949 8.78916C7.36627 7.94096 3.52551 11.9485 2.7462 14.0582C2.98849 14.309 3.24701 14.5439 3.52008 14.7614Z" stroke="var(--stroke-0, #F7F8F9)" stroke-linejoin="round"/>
<path d="M0.5 8.5C0.5 9.69043 0.760014 10.8201 1.22635 11.8354C1.9527 7.97406 10.8775 7.85743 10.8454 6.09036C10.8197 4.67671 4.56199 4.60174 1.43636 4.74096C0.838734 5.86163 0.5 7.14126 0.5 8.5Z" stroke="var(--stroke-0, #F7F8F9)" stroke-linejoin="round"/>
<path d="M3.18117 2.5241C3.07922 2.6149 2.97961 2.70827 2.88245 2.80411C2.5398 3.14208 2.2275 3.51073 1.95 3.90562C4.63758 3.41298 11.0631 2.78755 15.2644 4.22691C15.0954 3.95991 14.911 3.70361 14.7125 3.45925C14.4808 3.17412 14.23 2.90524 13.9618 2.6546C9.69518 1.34535 4.99695 2.02208 3.18117 2.5241Z" stroke="var(--stroke-0, #F7F8F9)" stroke-linejoin="round"/>
</g>
</g>
</svg>
